<?xml version="1.0" encoding="UTF-8" standalone="no"?>
<!-- Created with Inkscape (http://www.inkscape.org/) -->

<svg
   xmlns:dc="http://purl.org/dc/elements/1.1/"
   xmlns:cc="http://creativecommons.org/ns#"
   xmlns:rdf="http://www.w3.org/1999/02/22-rdf-syntax-ns#"
   xmlns:svg="http://www.w3.org/2000/svg"
   xmlns="http://www.w3.org/2000/svg"
   xmlns:sodipodi="http://sodipodi.sourceforge.net/DTD/sodipodi-0.dtd"
   xmlns:inkscape="http://www.inkscape.org/namespaces/inkscape"
   version="1.1"
   id="svg2"
   xml:space="preserve"
   width="342.34134"
   height="342.80786"
   viewBox="0 0 342.34134 342.80786"
   sodipodi:docname="labsymbol.svg"
   inkscape:version="0.92.2 5c3e80d, 2017-08-06"><metadata
     id="metadata8"><rdf:RDF><cc:Work
         rdf:about=""><dc:format>image/svg+xml</dc:format><dc:type
           rdf:resource="http://purl.org/dc/dcmitype/StillImage" /><dc:title></dc:title></cc:Work></rdf:RDF></metadata><defs
     id="defs6"><clipPath
       clipPathUnits="userSpaceOnUse"
       id="clipPath20"><path
         d="M 24,0 H 818 V 595.2756 H 24 Z"
         id="path18"
         inkscape:connector-curvature="0" /></clipPath></defs><sodipodi:namedview
     pagecolor="#ffffff"
     bordercolor="#666666"
     borderopacity="1"
     objecttolerance="10"
     gridtolerance="10"
     guidetolerance="10"
     inkscape:pageopacity="0"
     inkscape:pageshadow="2"
     inkscape:window-width="640"
     inkscape:window-height="480"
     id="namedview4"
     showgrid="false"
     inkscape:zoom="0.68843229"
     inkscape:cx="171.17067"
     inkscape:cy="171.40393"
     inkscape:window-x="0"
     inkscape:window-y="0"
     inkscape:window-maximized="0"
     inkscape:current-layer="g10" /><g
     id="g10"
     inkscape:groupmode="layer"
     inkscape:label="labsymbol"
     transform="matrix(1.3333333,0,0,-1.3333333,-444.5612,687.43707)"><g
       id="g12" /><g
       id="g14"><g
         id="g16"
         clip-path="url(#clipPath20)"><path
           d="m 552.6472,478.0052 c 50.1236,-50.1657 50.1236,-131.5004 0,-181.6661 -50.1236,-50.1657 -131.3901,-50.1657 -181.5137,0 -50.1236,50.1657 -50.1236,131.5004 0,181.6661 50.1236,50.1657 131.3901,50.1657 181.5137,0 z"
           style="fill:#000000;fill-opacity:1;fill-rule:nonzero;stroke:none"
           id="path22"
           inkscape:connector-curvature="0" /><g
           id="g24"
           transform="matrix(0.7753906,0,0,-0.7760417,379.2093,450.4497)"><path
             d="M 0.5271425,0 C 0.5128749,2.319058 0.4926925,4.638076 0.4665957,6.957031 0.2313525,27.86064 -0.4841534,48.77374 0.5229869,69.65696 0.9031509,77.53972 1.528537,85.40874 2.398236,93.2526 c 2.182092,14.36 6.580431,28.2449 12.998274,41.1727 6.46398,13.0207 14.91811,24.9631 24.28941,36.1813 8.33668,9.9798 17.44851,19.4237 28.66531,25.9561 2.19968,1.281 4.46794,2.4405 6.79458,3.4731"
             style="fill:none;stroke:#d6d5d5;stroke-width:10;stroke-linecap:butt;stroke-linejoin:miter;stroke-miterlimit:4;stroke-dasharray:none;stroke-opacity:1"
             id="path26"
             inkscape:connector-curvature="0" /></g><g
           id="g28"
           transform="matrix(0.7753906,0,0,-0.7760417,465.0428,437.6179)"><path
             d="M 0,198.7879 C 24.62859,188.479 46.40804,172.3829 63.49154,151.8647 81.98473,129.6534 94.37024,103.0061 99.42709,74.54964 99.91742,67.36613 100.3216,60.177 100.6396,52.9838 101.3745,36.35844 101.6487,19.71605 101.4817,3.075314 101.4714,2.05019 101.4595,1.025084 101.4459,0"
             style="fill:none;stroke:#d6d5d5;stroke-width:10;stroke-linecap:butt;stroke-linejoin:miter;stroke-miterlimit:4;stroke-dasharray:none;stroke-opacity:1"
             id="path30"
             inkscape:connector-curvature="0" /></g><g
           id="g32"
           transform="matrix(0.7753906,0,0,-0.7760417,388.7481,360.6448)"><path
             d="M 0,8.048828 C 8.607735,12.91038 18.30089,15.01361 27.95827,14.11523 39.00354,13.08775 49.45081,8.201467 57.74942,0.1816406 68.56101,7.887294 81.18167,12.02264 94.09503,12.09082 107.3369,12.16073 120.3018,7.953889 131.3571,0 c 7.9631,7.745726 17.9843,12.51533 28.6044,13.61426 9.9047,1.0249 19.8644,-1.19853 28.6044,-6.385744"
             style="fill:none;stroke:#d6d5d5;stroke-width:10;stroke-linecap:butt;stroke-linejoin:miter;stroke-miterlimit:4;stroke-dasharray:none;stroke-opacity:1"
             id="path34"
             inkscape:connector-curvature="0" /></g><g
           id="g36"
           transform="matrix(0.7753906,0,0,-0.7760417,379.9003,484.1305)"><path
             d="M 0,32.53937 C 18.48761,31.62567 36.7879,28.3992 54.47329,22.93536 72.24422,17.44509 89.25326,9.739383 105.0992,0 c 15.3898,9.191283 31.8134,16.52899 48.9279,21.86004 18.6475,5.80856 37.9659,9.18948 57.4777,10.05921"
             style="fill:none;stroke:#d6d5d5;stroke-width:10;stroke-linecap:butt;stroke-linejoin:miter;stroke-miterlimit:4;stroke-dasharray:none;stroke-opacity:1"
             id="path38"
             inkscape:connector-curvature="0" /></g><g
           id="g40"
           transform="matrix(0.7753906,0,0,-0.7760417,421.4193,466.3273)"><path
             d="M 0,0 C 17.01112,4.645874 34.56632,7 52.20044,7 69.83456,7 87.38977,4.645874 104.4009,0"
             style="fill:none;stroke:#d6d5d5;stroke-width:10;stroke-linecap:butt;stroke-linejoin:miter;stroke-miterlimit:4;stroke-dasharray:none;stroke-opacity:1"
             id="path42"
             inkscape:connector-curvature="0" /></g><path
           d="M 547.5221,451.9643 V 418.3002 H 527.2836 Z"
           style="fill:#d6d5d5;fill-opacity:1;fill-rule:nonzero;stroke:none"
           id="path44"
           inkscape:connector-curvature="0" /><path
           d="m 456.8553,279.261 c -4.8549,2.8053 -9.7099,5.6107 -14.5648,8.416 -4.8549,2.8053 -9.7099,5.6107 -14.5648,8.416 l 10.1193,17.5419 z"
           style="fill:#d6d5d5;fill-opacity:1;fill-rule:nonzero;stroke:none"
           id="path46"
           inkscape:connector-curvature="0" /><path
           d="m 454.0906,416.2782 c -2.2832,0.0695 -3.8799,-0.1225 -4.0465,-0.1455 -1.9896,-0.2742 -3.3687,-2.1068 -3.1016,-4.0985 0.2671,-1.9915 2.1043,-3.3861 4.095,-3.1284 0.0787,0.0102 7.7377,0.966 12.1397,-2.9101 2.1737,-1.914 3.2323,-4.7459 3.2228,-8.6578 v -0.1455 c 0.002,-0.0407 0.0608,-4.1727 -3.0531,-7.3966 -2.6581,-2.7519 -6.9412,-4.1456 -12.7213,-4.147 -0.0242,0 -0.0484,0 -0.0727,0 l -42.2345,0.1455 c -2.0138,-0.007 -3.6323,-1.6493 -3.6347,-3.6619 -0.002,-2.0147 1.622,-3.6353 3.6347,-3.6377 l 42.2103,-0.1213 c 0.0404,0 0.0808,0 0.1211,0 7.8265,0.004 13.8714,2.126 17.9552,6.3539 5.0008,5.1771 5.1011,11.6576 5.0885,12.6106 0.008,6.0607 -1.932,10.8296 -5.7428,14.1628 -4.3308,3.788 -10.0547,4.6617 -13.8601,4.7775 z"
           style="fill:#76d6ff;fill-opacity:1;fill-rule:nonzero;stroke:none"
           id="path48"
           inkscape:connector-curvature="0" /><path
           d="m 504.2663,408.8817 -25.9029,0.0727 c -2.0138,0.007 -3.6406,1.6465 -3.6346,3.662 0.006,2.0065 1.6203,3.6377 3.6346,3.6377 l 25.9029,-0.0728 c 0.0161,0 0.0323,0 0.0485,0 3.0558,7e-4 5.2992,0.6722 6.6392,2.0129 1.496,1.4966 1.501,3.467 1.5024,3.4922 v 0.1455 c 0.005,1.9328 -0.4672,3.2985 -1.4539,4.1712 -1.7991,1.5912 -5.1213,1.5782 -6.2516,1.4308 -1.9859,-0.259 -3.8213,1.1142 -4.095,3.1042 -0.2745,1.9952 1.1076,3.8477 3.1015,4.1227 0.229,0.0316 1.0392,0.1213 2.1566,0.1213 2.5127,0 6.6698,-0.4818 9.862,-3.274 1.8115,-1.5845 3.9732,-4.5463 3.9739,-9.652 0.0135,-0.8322 -0.0824,-5.1308 -3.4893,-8.6577 -2.7715,-2.8692 -6.7871,-4.347 -11.9943,-4.3167 z"
           style="fill:#76d6ff;fill-opacity:1;fill-rule:nonzero;stroke:none"
           id="path50"
           inkscape:connector-curvature="0" /></g></g></g></svg>