<?xml version="1.0" encoding="UTF-8" standalone="no"?>
<!-- Created with Inkscape (http://www.inkscape.org/) -->

<svg
   xmlns:dc="http://purl.org/dc/elements/1.1/"
   xmlns:cc="http://creativecommons.org/ns#"
   xmlns:rdf="http://www.w3.org/1999/02/22-rdf-syntax-ns#"
   xmlns:svg="http://www.w3.org/2000/svg"
   xmlns="http://www.w3.org/2000/svg"
   xmlns:sodipodi="http://sodipodi.sourceforge.net/DTD/sodipodi-0.dtd"
   xmlns:inkscape="http://www.inkscape.org/namespaces/inkscape"
   version="1.1"
   id="svg2"
   xml:space="preserve"
   width="342.40121"
   height="342.7132"
   viewBox="0 0 342.40121 342.7132"
   sodipodi:docname="labsymbol_bright.svg"
   inkscape:version="0.92.2 5c3e80d, 2017-08-06"><metadata
     id="metadata8"><rdf:RDF><cc:Work
         rdf:about=""><dc:format>image/svg+xml</dc:format><dc:type
           rdf:resource="http://purl.org/dc/dcmitype/StillImage" /><dc:title></dc:title></cc:Work></rdf:RDF></metadata><defs
     id="defs6"><clipPath
       clipPathUnits="userSpaceOnUse"
       id="clipPath20"><path
         d="M 24,0 H 818 V 595.2756 H 24 Z"
         id="path18"
         inkscape:connector-curvature="0" /></clipPath></defs><sodipodi:namedview
     pagecolor="#ffffff"
     bordercolor="#666666"
     borderopacity="1"
     objecttolerance="10"
     gridtolerance="10"
     guidetolerance="10"
     inkscape:pageopacity="0"
     inkscape:pageshadow="2"
     inkscape:window-width="640"
     inkscape:window-height="480"
     id="namedview4"
     showgrid="false"
     inkscape:zoom="0.68862245"
     inkscape:cx="171.20061"
     inkscape:cy="171.3566"
     inkscape:window-x="0"
     inkscape:window-y="0"
     inkscape:window-maximized="0"
     inkscape:current-layer="g10" /><g
     id="g10"
     inkscape:groupmode="layer"
     inkscape:label="labsymbol_bright"
     transform="matrix(1.3333333,0,0,-1.3333333,-444.6264,687.55707)"><g
       id="g12" /><g
       id="g14"><g
         id="g16"
         clip-path="url(#clipPath20)"><path
           d="m 552.6472,478.0052 c 50.1236,-50.1657 50.1236,-131.5004 0,-181.6661 -50.1236,-50.1657 -131.3901,-50.1657 -181.5137,0 -50.1236,50.1657 -50.1236,131.5004 0,181.6661 50.1236,50.1657 131.3901,50.1657 181.5137,0 z"
           style="fill:#000000;fill-opacity:1;fill-rule:nonzero;stroke:none"
           id="path22"
           inkscape:connector-curvature="0" /><g
           id="g24"
           transform="matrix(0.7753906,0,0,-0.7760417,379.2093,450.4497)"><path
             d="M 0.5271425,0 C 0.5128749,2.319058 0.4926925,4.638076 0.4665957,6.957031 0.2313525,27.86064 -0.4841534,48.77374 0.5229869,69.65696 0.9031509,77.53972 1.528537,85.40874 2.398236,93.2526 c 2.182092,14.36 6.580431,28.2449 12.998274,41.1727 6.46398,13.0207 14.91811,24.9631 24.28941,36.1813 8.33668,9.9798 17.44851,19.4237 28.66531,25.9561 2.19968,1.281 4.46794,2.4405 6.79458,3.4731"
             style="fill:none;stroke:#d6d5d5;stroke-width:10;stroke-linecap:butt;stroke-linejoin:miter;stroke-miterlimit:4;stroke-dasharray:none;stroke-opacity:1"
             id="path26"
             inkscape:connector-curvature="0" /></g><g
           id="g28"
           transform="matrix(0.7753906,0,0,-0.7760417,465.0428,437.6179)"><path
             d="M 0,198.7879 C 24.62859,188.479 46.40804,172.3829 63.49154,151.8647 81.98473,129.6534 94.37024,103.0061 99.42709,74.54964 99.91742,67.36613 100.3216,60.177 100.6396,52.9838 101.3745,36.35844 101.6487,19.71605 101.4817,3.075314 101.4714,2.05019 101.4595,1.025084 101.4459,0"
             style="fill:none;stroke:#d6d5d5;stroke-width:10;stroke-linecap:butt;stroke-linejoin:miter;stroke-miterlimit:4;stroke-dasharray:none;stroke-opacity:1"
             id="path30"
             inkscape:connector-curvature="0" /></g><g
           id="g32"
           transform="matrix(0.7753906,0,0,-0.7760417,388.7481,360.6448)"><path
             d="M 0,8.048828 C 8.607735,12.91038 18.30089,15.01361 27.95827,14.11523 39.00354,13.08775 49.45081,8.201467 57.74942,0.1816406 68.56101,7.887294 81.18167,12.02264 94.09503,12.09082 107.3369,12.16073 120.3018,7.953889 131.3571,0 c 7.9631,7.745726 17.9843,12.51533 28.6044,13.61426 9.9047,1.0249 19.8644,-1.19853 28.6044,-6.385744"
             style="fill:none;stroke:#d6d5d5;stroke-width:10;stroke-linecap:butt;stroke-linejoin:miter;stroke-miterlimit:4;stroke-dasharray:none;stroke-opacity:1"
             id="path34"
             inkscape:connector-curvature="0" /></g><g
           id="g36"
           transform="matrix(0.7753906,0,0,-0.7760417,379.9003,484.1305)"><path
             d="M 0,32.53937 C 18.48761,31.62567 36.7879,28.3992 54.47329,22.93536 72.24422,17.44509 89.25326,9.739383 105.0992,0 c 15.3898,9.191283 31.8134,16.52899 48.9279,21.86004 18.6475,5.80856 37.9659,9.18948 57.4777,10.05921"
             style="fill:none;stroke:#d6d5d5;stroke-width:10;stroke-linecap:butt;stroke-linejoin:miter;stroke-miterlimit:4;stroke-dasharray:none;stroke-opacity:1"
             id="path38"
             inkscape:connector-curvature="0" /></g><g
           id="g40"
           transform="matrix(0.7753906,0,0,-0.7760417,421.4193,466.3273)"><path
             d="M 0,0 C 17.01112,4.645874 34.56632,7 52.20044,7 69.83456,7 87.38977,4.645874 104.4009,0"
             style="fill:none;stroke:#d6d5d5;stroke-width:10;stroke-linecap:butt;stroke-linejoin:miter;stroke-miterlimit:4;stroke-dasharray:none;stroke-opacity:1"
             id="path42"
             inkscape:connector-curvature="0" /></g><path
           d="m 424.8422,436.1041 c 2.7042,0.0768 4.6095,-0.1801 4.8103,-0.2078 1.7594,-0.2428 2.9739,-1.8751 2.734,-3.6368 -0.2401,-1.7621 -1.8627,-2.908 -3.6337,-2.7362 -0.3399,0.033 -10.4042,1.4003 -16.0576,-3.9138 -2.3816,-2.2387 -3.6774,-5.4844 -3.7235,-9.4481 v -0.1039 c 0.0639,-0.878 0.3694,-5.1064 3.3775,-8.5616 3.5182,-4.041 9.3635,-6.0521 16.8534,-5.5417 h 48.0397 c 1.7775,0 3.2185,-1.4421 3.2185,-3.2211 0,-1.779 -1.441,-3.2212 -3.2185,-3.2212 h -48.0397 c -9.3749,-0.3809 -16.7007,2.2226 -21.4561,7.4814 -4.7668,5.2713 -5.1465,11.6692 -5.177,13.2027 0.0896,5.9436 2.0699,10.8149 5.8691,14.2625 5.0114,4.5475 11.8476,5.5162 16.4036,5.6456 z"
           style="fill:#76d6ff;fill-opacity:1;fill-rule:nonzero;stroke:none"
           id="path44"
           inkscape:connector-curvature="0" /><path
           d="m 503.7499,411.8245 c -2.0269,0.0617 -3.4371,-0.1189 -3.5851,-0.1393 -1.7662,-0.2434 -3.0217,-1.8548 -2.7845,-3.6229 0.2371,-1.768 1.8875,-3.0157 3.6547,-2.7869 0.0698,0.009 6.8821,0.8632 10.79,-2.5779 1.9297,-1.6991 2.8626,-4.2259 2.8542,-7.6987 v -0.1045 c -0.0103,-2.4504 -0.9849,-4.8288 -2.715,-6.5839 -2.8867,-2.9286 -7.1534,-3.6542 -11.2773,-3.6578 -0.0232,0 -0.0464,0 -0.0696,0 l -61.0247,0.1045 c -1.7877,0 -3.237,-1.4505 -3.237,-3.2397 0,-1.7893 1.4493,-3.2397 3.237,-3.2397 l 60.9899,-0.1046 c 0.0348,0 0.0696,0 0.1044,0 6.9479,0.002 12.316,1.8902 15.9414,5.6434 4.4395,4.596 4.536,10.3363 4.5249,11.1823 0.007,5.3804 -1.6987,9.6167 -5.0818,12.5758 -3.8447,3.3628 -8.9433,4.1471 -12.3215,4.2499 z"
           style="fill:#76d6ff;fill-opacity:1;fill-rule:nonzero;stroke:none"
           id="path46"
           inkscape:connector-curvature="0" /><path
           d="M 547.5221,451.9643 V 418.3002 H 527.2836 Z"
           style="fill:#d6d5d5;fill-opacity:1;fill-rule:nonzero;stroke:none"
           id="path48"
           inkscape:connector-curvature="0" /><path
           d="m 456.8553,279.261 c -4.8549,2.8053 -9.7099,5.6107 -14.5648,8.416 -4.8549,2.8053 -9.7099,5.6107 -14.5648,8.416 l 10.1193,17.5419 z"
           style="fill:#d6d5d5;fill-opacity:1;fill-rule:nonzero;stroke:none"
           id="path50"
           inkscape:connector-curvature="0" /></g></g></g></svg>